<mxfile host="app.diagrams.net" agent="Mozilla/5.0 (Windows NT 10.0; Win64; x64) AppleWebKit/537.36 (KHTML, like Gecko) Chrome/134.0.0.0 Safari/537.36" version="26.1.1">
  <diagram name="Page-1" id="L0CMIegV1VLtob1kmPIR">
    <mxGraphModel dx="1434" dy="738" grid="1" gridSize="10" guides="1" tooltips="1" connect="1" arrows="1" fold="1" page="1" pageScale="1" pageWidth="850" pageHeight="1100" math="0" shadow="0">
      <root>
        <mxCell id="0" />
        <mxCell id="1" parent="0" />
        <mxCell id="jNp-3TdlRxS_LNZfibel-6" style="edgeStyle=orthogonalEdgeStyle;rounded=0;orthogonalLoop=1;jettySize=auto;html=1;" edge="1" parent="1">
          <mxGeometry relative="1" as="geometry">
            <mxPoint x="100" y="80" as="sourcePoint" />
            <mxPoint x="100" y="120" as="targetPoint" />
          </mxGeometry>
        </mxCell>
        <mxCell id="jNp-3TdlRxS_LNZfibel-7" style="edgeStyle=orthogonalEdgeStyle;rounded=0;orthogonalLoop=1;jettySize=auto;html=1;entryX=0.5;entryY=0;entryDx=0;entryDy=0;" edge="1" parent="1" target="jNp-3TdlRxS_LNZfibel-3">
          <mxGeometry relative="1" as="geometry">
            <mxPoint x="100" y="160" as="sourcePoint" />
          </mxGeometry>
        </mxCell>
        <mxCell id="jNp-3TdlRxS_LNZfibel-11" style="edgeStyle=orthogonalEdgeStyle;rounded=0;orthogonalLoop=1;jettySize=auto;html=1;entryX=0.5;entryY=0;entryDx=0;entryDy=0;" edge="1" parent="1" source="jNp-3TdlRxS_LNZfibel-3" target="jNp-3TdlRxS_LNZfibel-10">
          <mxGeometry relative="1" as="geometry" />
        </mxCell>
        <mxCell id="jNp-3TdlRxS_LNZfibel-3" value="主队列" style="rounded=0;whiteSpace=wrap;html=1;" vertex="1" parent="1">
          <mxGeometry x="40" y="200" width="120" height="40" as="geometry" />
        </mxCell>
        <mxCell id="jNp-3TdlRxS_LNZfibel-4" value="dict:&lt;div&gt;reqid分离存储日志&lt;/div&gt;" style="rounded=0;whiteSpace=wrap;html=1;" vertex="1" parent="1">
          <mxGeometry x="40" y="360" width="120" height="40" as="geometry" />
        </mxCell>
        <mxCell id="jNp-3TdlRxS_LNZfibel-5" value="Loki" style="shape=cylinder3;whiteSpace=wrap;html=1;boundedLbl=1;backgroundOutline=1;size=15;" vertex="1" parent="1">
          <mxGeometry x="430" y="560" width="60" height="80" as="geometry" />
        </mxCell>
        <mxCell id="jNp-3TdlRxS_LNZfibel-8" value="装饰器&lt;div&gt;log&lt;/div&gt;" style="shape=process;whiteSpace=wrap;html=1;backgroundOutline=1;" vertex="1" parent="1">
          <mxGeometry x="40" y="40" width="120" height="40" as="geometry" />
        </mxCell>
        <mxCell id="jNp-3TdlRxS_LNZfibel-9" value="记录日志函数" style="shape=process;whiteSpace=wrap;html=1;backgroundOutline=1;" vertex="1" parent="1">
          <mxGeometry x="40" y="120" width="120" height="40" as="geometry" />
        </mxCell>
        <mxCell id="jNp-3TdlRxS_LNZfibel-12" style="edgeStyle=orthogonalEdgeStyle;rounded=0;orthogonalLoop=1;jettySize=auto;html=1;entryX=0.5;entryY=0;entryDx=0;entryDy=0;" edge="1" parent="1" source="jNp-3TdlRxS_LNZfibel-10" target="jNp-3TdlRxS_LNZfibel-4">
          <mxGeometry relative="1" as="geometry" />
        </mxCell>
        <mxCell id="jNp-3TdlRxS_LNZfibel-16" style="edgeStyle=orthogonalEdgeStyle;rounded=0;orthogonalLoop=1;jettySize=auto;html=1;entryX=0.5;entryY=0;entryDx=0;entryDy=0;" edge="1" parent="1" source="jNp-3TdlRxS_LNZfibel-10" target="jNp-3TdlRxS_LNZfibel-15">
          <mxGeometry relative="1" as="geometry" />
        </mxCell>
        <mxCell id="jNp-3TdlRxS_LNZfibel-10" value="主队列处理函数" style="shape=process;whiteSpace=wrap;html=1;backgroundOutline=1;" vertex="1" parent="1">
          <mxGeometry x="40" y="280" width="120" height="40" as="geometry" />
        </mxCell>
        <mxCell id="jNp-3TdlRxS_LNZfibel-18" style="edgeStyle=orthogonalEdgeStyle;rounded=0;orthogonalLoop=1;jettySize=auto;html=1;entryX=0.5;entryY=0;entryDx=0;entryDy=0;" edge="1" parent="1" source="jNp-3TdlRxS_LNZfibel-14" target="jNp-3TdlRxS_LNZfibel-17">
          <mxGeometry relative="1" as="geometry" />
        </mxCell>
        <mxCell id="jNp-3TdlRxS_LNZfibel-14" value="事件捕获执行器" style="shape=process;whiteSpace=wrap;html=1;backgroundOutline=1;" vertex="1" parent="1">
          <mxGeometry x="400" y="40" width="120" height="40" as="geometry" />
        </mxCell>
        <mxCell id="jNp-3TdlRxS_LNZfibel-29" style="edgeStyle=orthogonalEdgeStyle;rounded=0;orthogonalLoop=1;jettySize=auto;html=1;entryX=0.5;entryY=0;entryDx=0;entryDy=0;exitX=0.5;exitY=1;exitDx=0;exitDy=0;" edge="1" parent="1" source="jNp-3TdlRxS_LNZfibel-15" target="jNp-3TdlRxS_LNZfibel-28">
          <mxGeometry relative="1" as="geometry" />
        </mxCell>
        <mxCell id="jNp-3TdlRxS_LNZfibel-15" value="写入Loki日志队列" style="rounded=0;whiteSpace=wrap;html=1;" vertex="1" parent="1">
          <mxGeometry x="240" y="360" width="120" height="40" as="geometry" />
        </mxCell>
        <mxCell id="jNp-3TdlRxS_LNZfibel-20" style="edgeStyle=orthogonalEdgeStyle;rounded=0;orthogonalLoop=1;jettySize=auto;html=1;entryX=0.5;entryY=0;entryDx=0;entryDy=0;" edge="1" parent="1" source="jNp-3TdlRxS_LNZfibel-17" target="jNp-3TdlRxS_LNZfibel-19">
          <mxGeometry relative="1" as="geometry" />
        </mxCell>
        <mxCell id="jNp-3TdlRxS_LNZfibel-17" value="事件操作函数" style="shape=process;whiteSpace=wrap;html=1;backgroundOutline=1;" vertex="1" parent="1">
          <mxGeometry x="400" y="120" width="120" height="40" as="geometry" />
        </mxCell>
        <mxCell id="jNp-3TdlRxS_LNZfibel-22" style="edgeStyle=orthogonalEdgeStyle;rounded=0;orthogonalLoop=1;jettySize=auto;html=1;entryX=0.5;entryY=0;entryDx=0;entryDy=0;" edge="1" parent="1" source="jNp-3TdlRxS_LNZfibel-19" target="jNp-3TdlRxS_LNZfibel-21">
          <mxGeometry relative="1" as="geometry" />
        </mxCell>
        <mxCell id="jNp-3TdlRxS_LNZfibel-19" value="主队列" style="rounded=0;whiteSpace=wrap;html=1;" vertex="1" parent="1">
          <mxGeometry x="400" y="200" width="120" height="40" as="geometry" />
        </mxCell>
        <mxCell id="jNp-3TdlRxS_LNZfibel-24" style="edgeStyle=orthogonalEdgeStyle;rounded=0;orthogonalLoop=1;jettySize=auto;html=1;entryX=0.5;entryY=0;entryDx=0;entryDy=0;" edge="1" parent="1" source="jNp-3TdlRxS_LNZfibel-21" target="jNp-3TdlRxS_LNZfibel-23">
          <mxGeometry relative="1" as="geometry" />
        </mxCell>
        <mxCell id="jNp-3TdlRxS_LNZfibel-25" value="提取或删除" style="edgeLabel;html=1;align=center;verticalAlign=middle;resizable=0;points=[];" vertex="1" connectable="0" parent="jNp-3TdlRxS_LNZfibel-24">
          <mxGeometry x="-0.2" relative="1" as="geometry">
            <mxPoint as="offset" />
          </mxGeometry>
        </mxCell>
        <mxCell id="jNp-3TdlRxS_LNZfibel-27" style="edgeStyle=orthogonalEdgeStyle;rounded=0;orthogonalLoop=1;jettySize=auto;html=1;" edge="1" parent="1" source="jNp-3TdlRxS_LNZfibel-21" target="jNp-3TdlRxS_LNZfibel-26">
          <mxGeometry relative="1" as="geometry" />
        </mxCell>
        <mxCell id="jNp-3TdlRxS_LNZfibel-21" value="主队列处理函数" style="shape=process;whiteSpace=wrap;html=1;backgroundOutline=1;" vertex="1" parent="1">
          <mxGeometry x="400" y="280" width="120" height="40" as="geometry" />
        </mxCell>
        <mxCell id="jNp-3TdlRxS_LNZfibel-23" value="dict:&lt;div&gt;reqid分离存储日志&lt;/div&gt;" style="rounded=0;whiteSpace=wrap;html=1;" vertex="1" parent="1">
          <mxGeometry x="400" y="360" width="120" height="40" as="geometry" />
        </mxCell>
        <mxCell id="jNp-3TdlRxS_LNZfibel-30" style="edgeStyle=orthogonalEdgeStyle;rounded=0;orthogonalLoop=1;jettySize=auto;html=1;exitX=0.5;exitY=1;exitDx=0;exitDy=0;" edge="1" parent="1" source="jNp-3TdlRxS_LNZfibel-26">
          <mxGeometry relative="1" as="geometry">
            <mxPoint x="460" y="480" as="targetPoint" />
          </mxGeometry>
        </mxCell>
        <mxCell id="jNp-3TdlRxS_LNZfibel-26" value="写入Loki日志队列" style="rounded=0;whiteSpace=wrap;html=1;" vertex="1" parent="1">
          <mxGeometry x="600" y="360" width="120" height="40" as="geometry" />
        </mxCell>
        <mxCell id="jNp-3TdlRxS_LNZfibel-28" value="日志写入Loki" style="shape=process;whiteSpace=wrap;html=1;backgroundOutline=1;" vertex="1" parent="1">
          <mxGeometry x="400" y="480" width="120" height="40" as="geometry" />
        </mxCell>
        <mxCell id="jNp-3TdlRxS_LNZfibel-31" style="edgeStyle=orthogonalEdgeStyle;rounded=0;orthogonalLoop=1;jettySize=auto;html=1;entryX=0.5;entryY=0;entryDx=0;entryDy=0;entryPerimeter=0;" edge="1" parent="1" source="jNp-3TdlRxS_LNZfibel-28" target="jNp-3TdlRxS_LNZfibel-5">
          <mxGeometry relative="1" as="geometry" />
        </mxCell>
        <mxCell id="jNp-3TdlRxS_LNZfibel-34" style="edgeStyle=entityRelationEdgeStyle;rounded=0;orthogonalLoop=1;jettySize=auto;html=1;exitX=0;exitY=0.5;exitDx=0;exitDy=0;entryX=1;entryY=0.5;entryDx=0;entryDy=0;fillColor=#d80073;strokeColor=#A50040;dashed=1;" edge="1" parent="1" source="jNp-3TdlRxS_LNZfibel-32" target="jNp-3TdlRxS_LNZfibel-9">
          <mxGeometry relative="1" as="geometry" />
        </mxCell>
        <mxCell id="jNp-3TdlRxS_LNZfibel-35" style="edgeStyle=entityRelationEdgeStyle;rounded=0;orthogonalLoop=1;jettySize=auto;html=1;entryX=1;entryY=0.5;entryDx=0;entryDy=0;fillColor=#d80073;strokeColor=#A50040;dashed=1;" edge="1" parent="1" source="jNp-3TdlRxS_LNZfibel-32" target="jNp-3TdlRxS_LNZfibel-17">
          <mxGeometry relative="1" as="geometry" />
        </mxCell>
        <mxCell id="jNp-3TdlRxS_LNZfibel-32" value="主队列处理的标注对象" style="swimlane;whiteSpace=wrap;html=1;" vertex="1" parent="1">
          <mxGeometry x="600" y="40" width="200" height="80" as="geometry" />
        </mxCell>
        <mxCell id="jNp-3TdlRxS_LNZfibel-36" style="edgeStyle=entityRelationEdgeStyle;rounded=0;orthogonalLoop=1;jettySize=auto;html=1;entryX=1;entryY=0.5;entryDx=0;entryDy=0;dashed=1;fillColor=#d80073;strokeColor=#A50040;" edge="1" parent="1" source="jNp-3TdlRxS_LNZfibel-33" target="jNp-3TdlRxS_LNZfibel-10">
          <mxGeometry relative="1" as="geometry" />
        </mxCell>
        <mxCell id="jNp-3TdlRxS_LNZfibel-37" style="edgeStyle=entityRelationEdgeStyle;rounded=0;orthogonalLoop=1;jettySize=auto;html=1;entryX=1;entryY=0.5;entryDx=0;entryDy=0;dashed=1;fillColor=#d80073;strokeColor=#A50040;" edge="1" parent="1" source="jNp-3TdlRxS_LNZfibel-33" target="jNp-3TdlRxS_LNZfibel-21">
          <mxGeometry relative="1" as="geometry" />
        </mxCell>
        <mxCell id="jNp-3TdlRxS_LNZfibel-33" value="Loki日志对象" style="swimlane;whiteSpace=wrap;html=1;" vertex="1" parent="1">
          <mxGeometry x="600" y="160" width="200" height="80" as="geometry" />
        </mxCell>
      </root>
    </mxGraphModel>
  </diagram>
</mxfile>
